<svg xmlns="http://www.w3.org/2000/svg" width="199.27" height="35.5" viewBox="0 0 199.27 35.5">
  <g id="Group_1" data-name="Group 1" transform="translate(-1519.082 -32.5)">
    <circle id="Ellipse_3" data-name="Ellipse 3" cx="3" cy="3" r="3" transform="translate(1712.352 36)" fill="#fff"/>
    <ellipse id="Ellipse_4" data-name="Ellipse 4" cx="3" cy="3.5" rx="3" ry="3.5" transform="translate(1712.352 48)" fill="#fff"/>
    <ellipse id="Ellipse_5" data-name="Ellipse 5" cx="3" cy="3.5" rx="3" ry="3.5" transform="translate(1712.352 61)" fill="#fff"/>
    <g id="Alert" transform="translate(1637.5 32.5)">
      <path id="Path_1" data-name="Path 1" d="M31.756,31.063H21.147A4.357,4.357,0,0,1,16.9,35.5a4.357,4.357,0,0,1-4.243-4.437H2.052a2.056,2.056,0,0,1-1.91-1.553,2.439,2.439,0,0,1,.637-2.441,9.076,9.076,0,0,0,3.395-7.1V13.313C4.173,5.991,9.9,0,16.9,0s12.73,5.991,12.73,13.313v6.656a9.076,9.076,0,0,0,3.395,7.1,2.162,2.162,0,0,1,.637,2.441A2.056,2.056,0,0,1,31.756,31.063Z" transform="translate(-0.063)" fill="#fff" fill-rule="evenodd"/>
    </g>
    <path id="Profile" d="M0,33.948V29.7c0-4.669,7.638-8.488,16.974-8.488S33.948,25.036,33.948,29.7v4.243ZM8.486,8.488a8.487,8.487,0,1,1,8.488,8.486A8.488,8.488,0,0,1,8.486,8.488Z" transform="translate(1519.082 32.5)" fill="#fff"/>
    <g id="Web" transform="translate(1578.265 34)">
      <path id="Path_4" data-name="Path 4" d="M5.092,5.092A15.409,15.409,0,0,1,16.974,0,15.409,15.409,0,0,1,28.856,5.092a15.409,15.409,0,0,1,5.092,11.882,15.409,15.409,0,0,1-5.092,11.882,15.409,15.409,0,0,1-11.882,5.092A15.409,15.409,0,0,1,5.092,28.856C1.98,25.461,0,21.783,0,16.974A15.409,15.409,0,0,1,5.092,5.092ZM19.237,30.553q1.7,0,4.243-2.546a12.356,12.356,0,0,0,1.98-5.941,4.685,4.685,0,0,0-1.414-3.395,4.98,4.98,0,0,0-3.678-1.7H17.54a8.26,8.26,0,0,1-2.546-.566,2.568,2.568,0,0,1-.849-1.98,1.47,1.47,0,0,1,.566-1.132,2.145,2.145,0,0,1,1.132-.566,1.931,1.931,0,0,1,1.414.849c.566.283.849.566,1.132.566a1.7,1.7,0,0,0,1.132-.283A1.7,1.7,0,0,0,19.8,12.73,4.5,4.5,0,0,0,18.388,9.9,11.7,11.7,0,0,0,19.8,4.526a.608.608,0,0,0-.566-.566,8.745,8.745,0,0,0-2.263-.566c-3.112.283-5.375.849-7.355,2.263a7.122,7.122,0,0,0-2.546,5.658,7.243,7.243,0,0,0,2.263,5.375,7.729,7.729,0,0,0,5.375,2.263h0v1.132a3.632,3.632,0,0,0,1.132,2.829,4.12,4.12,0,0,0,2.546,1.7V29.7c0,.283,0,.283.283.566S18.954,30.553,19.237,30.553Z" fill="#fff"/>
    </g>
  </g>
</svg>
